<svg width="80" height="134" viewBox="0 0 80 134" fill="none" xmlns="http://www.w3.org/2000/svg">
<g clip-path="url(#clip0_203_73)">
<line x1="20.6381" y1="53.3714" x2="26.6381" y2="40.3714" stroke="#F58071" stroke-width="3"/>
<line x1="15.7712" y1="33.1398" x2="22.7712" y2="23.1398" stroke="#F58071" stroke-width="3"/>
<line y1="-1.5" x2="9.76033" y2="-1.5" transform="matrix(-0.151597 -0.988442 0.988301 -0.152519 29.4797 33.6475)" stroke="#F58071" stroke-width="3"/>
<line y1="-1.5" x2="12.4813" y2="-1.5" transform="matrix(-0.948388 -0.317112 0.315345 -0.948977 53.8372 29.958)" stroke="#F58071" stroke-width="3"/>
<line x1="54.6981" y1="111.758" x2="46.2999" y2="107.327" stroke="#F58071" stroke-width="3"/>
<path d="M31.3359 121.505L17.7726 122" stroke="#F58071" stroke-width="3"/>
<line y1="-1" x2="10.18" y2="-1" transform="matrix(0.484492 0.874796 -0.873516 0.486795 4.36548 101.175)" stroke="#F58071" stroke-width="2"/>
<mask id="mask0_203_73" style="mask-type:luminance" maskUnits="userSpaceOnUse" x="0" y="0" width="80" height="133">
<path d="M58.6575 102.713C58.6575 99.2401 61.4692 96.4296 64.9314 96.4296C68.393 96.4296 71.203 99.2401 71.203 102.713C71.203 106.18 68.393 108.989 64.9314 108.989C61.4692 108.989 58.6575 106.18 58.6575 102.713ZM38.5311 106.148C38.5311 102.884 41.176 100.235 44.4345 100.235C47.6967 100.235 50.3362 102.884 50.3362 106.148C50.3362 109.41 47.6967 112.059 44.4345 112.059C41.176 112.059 38.5311 109.41 38.5311 106.148ZM49.5913 112.828C49.5913 109.682 52.1368 107.132 55.2738 107.132C58.409 107.132 60.9546 109.682 60.9546 112.828C60.9546 115.97 58.409 118.519 55.2738 118.519C52.1368 118.519 49.5913 115.97 49.5913 112.828ZM41.381 118.038C41.381 115.72 43.2584 113.84 45.5708 113.84C47.885 113.84 49.7565 115.72 49.7565 118.038C49.7565 120.355 47.885 122.236 45.5708 122.236C43.2584 122.236 41.381 120.355 41.381 118.038ZM52.9767 99.5825C52.9767 98.1838 54.1032 97.0496 55.4995 97.0496C56.8966 97.0496 58.0231 98.1838 58.0231 99.5825C58.0231 100.976 56.8966 102.11 55.4995 102.11C54.1032 102.11 52.9767 100.976 52.9767 99.5825ZM37.4329 64.8724C37.4329 61.0398 40.5355 57.9322 44.3676 57.9322C48.1943 57.9322 51.2975 61.0398 51.2975 64.8724C51.2975 68.7052 48.1943 71.8143 44.3676 71.8143C40.5355 71.8143 37.4329 68.7052 37.4329 64.8724ZM26.4052 66.3773C26.4052 64.2751 28.1059 62.5662 30.2092 62.5662C32.3086 62.5662 34.0148 64.2751 34.0148 66.3773C34.0148 68.4844 32.3086 70.1872 30.2092 70.1872C28.1059 70.1872 26.4052 68.4844 26.4052 66.3773ZM13.0486 66.1168C13.0486 64.6463 14.2402 63.4566 15.709 63.4566C17.1734 63.4566 18.3649 64.6463 18.3649 66.1168C18.3649 67.5879 17.1734 68.783 15.709 68.783C14.2402 68.783 13.0486 67.5879 13.0486 66.1168ZM15.9862 73.5007C15.9862 70.3587 18.5306 67.8102 21.6731 67.8102C24.8094 67.8102 27.3556 70.3587 27.3556 73.5007C27.3556 76.648 24.8094 79.1921 21.6731 79.1921C18.5306 79.1921 15.9862 76.648 15.9862 73.5007ZM30.1049 75.6415C30.1049 72.4995 32.651 69.9495 35.7873 69.9495C38.9226 69.9495 41.4688 72.4995 41.4688 75.6415C41.4688 78.7872 38.9226 81.3312 35.7873 81.3312C32.651 81.3312 30.1049 78.7872 30.1049 75.6415ZM22.2977 107.657C22.2977 104.394 24.937 101.751 28.1937 101.751C31.4521 101.751 34.091 104.394 34.091 107.657C34.091 110.921 31.4521 113.564 28.1937 113.564C24.937 113.564 22.2977 110.921 22.2977 107.657ZM5.15241 112.226C5.15241 109.04 7.73055 106.456 10.9111 106.456C14.0861 106.456 16.6648 109.04 16.6648 112.226C16.6648 115.406 14.0861 117.988 10.9111 117.988C7.73055 117.988 5.15241 115.406 5.15241 112.226ZM27.7525 121.063C27.7525 117.501 30.635 114.608 34.1915 114.608C37.7526 114.608 40.6343 117.501 40.6343 121.063C40.6343 124.624 37.7526 127.511 34.1915 127.511C30.635 127.511 27.7525 124.624 27.7525 121.063ZM13.8051 121.439C13.8051 118.293 16.3506 115.748 19.4859 115.748C22.6283 115.748 25.1684 118.293 25.1684 121.439C25.1684 124.58 22.6283 127.13 19.4859 127.13C16.3506 127.13 13.8051 124.58 13.8051 121.439ZM8.8233 129.741C8.8233 128.087 10.1607 126.748 11.8117 126.748C13.4627 126.748 14.7985 128.087 14.7985 129.741C14.7985 131.395 13.4627 132.732 11.8117 132.732C10.1607 132.732 8.8233 131.395 8.8233 129.741ZM31.773 26.8833C31.773 22.8355 35.0524 19.551 39.0993 19.551C43.1423 19.551 46.4218 22.8355 46.4218 26.8833C46.4218 30.9384 43.1423 34.2174 39.0993 34.2174C35.0524 34.2174 31.773 30.9384 31.773 26.8833ZM38.4759 40.4839C38.4759 37.0435 41.2594 34.2499 44.6984 34.2499C48.1335 34.2499 50.9227 37.0435 50.9227 40.4839C50.9227 43.9228 48.1335 46.7163 44.6984 46.7163C41.2594 46.7163 38.4759 43.9228 38.4759 40.4839ZM40.8553 14.8335C40.8553 11.6915 43.4009 9.14191 46.5377 9.14191C49.6801 9.14191 52.2246 11.6915 52.2246 14.8335C52.2246 17.9736 49.6801 20.5238 46.5377 20.5238C43.4009 20.5238 40.8553 17.9736 40.8553 14.8335ZM42.4456 3.99245C42.4456 1.7869 44.2296 3.07709e-06 46.4334 3.07709e-06C48.63 3.07709e-06 50.4141 1.7869 50.4141 3.99245C50.4141 6.19418 48.63 7.98108 46.4334 7.98108C44.2296 7.98108 42.4456 6.19418 42.4456 3.99245ZM50.3969 32.2324C50.3969 28.5541 53.3792 25.5682 57.0562 25.5682C60.7288 25.5682 63.7099 28.5541 63.7099 32.2324C63.7099 35.9152 60.7288 38.9023 57.0562 38.9023C53.3792 38.9023 50.3969 35.9152 50.3969 32.2324ZM51.7497 20.7344C51.7497 18.6379 53.446 16.9399 55.5383 16.9399C57.6315 16.9399 59.3262 18.6379 59.3262 20.7344C59.3262 22.83 57.6315 24.5273 55.5383 24.5273C53.446 24.5273 51.7497 22.83 51.7497 20.7344ZM33.8381 8.434C33.8381 6.22675 35.6207 4.44155 37.8243 4.44155C40.0225 4.44155 41.8106 6.22675 41.8106 8.434C41.8106 10.6413 40.0225 12.4266 37.8243 12.4266C35.6207 12.4266 33.8381 10.6413 33.8381 8.434ZM31.1479 15.8841C31.1479 14.3025 32.4301 13.0127 34.0148 13.0127C35.5935 13.0127 36.8746 14.3025 36.8746 15.8841C36.8746 17.4653 35.5935 18.754 34.0148 18.754C32.4301 18.754 31.1479 17.4653 31.1479 15.8841ZM57.4704 74.6233C57.4704 71.3996 60.0771 68.7886 63.2959 68.7886C66.5156 68.7886 69.1225 71.3996 69.1225 74.6233C69.1225 77.8471 66.5156 80.458 63.2959 80.458C60.0771 80.458 57.4704 77.8471 57.4704 74.6233ZM47.7691 74.3412C47.7691 72.2236 49.4808 70.5031 51.5957 70.5031C53.716 70.5031 55.4279 72.2236 55.4279 74.3412C55.4279 76.4594 53.716 78.1799 51.5957 78.1799C49.4808 78.1799 47.7691 76.4594 47.7691 74.3412ZM69.0391 79.4454C69.0391 77.7099 70.4472 76.2941 72.187 76.2941C73.9258 76.2941 75.3339 77.7099 75.3339 79.4454C75.3339 81.1885 73.9258 82.5983 72.187 82.5983C70.4472 82.5983 69.0391 81.1885 69.0391 79.4454ZM38.763 89.6547C38.763 86.4862 41.3301 83.9151 44.4952 83.9151C47.6587 83.9151 50.2258 86.4862 50.2258 89.6547C50.2258 92.8292 47.6587 95.3959 44.4952 95.3959C41.3301 95.3959 38.763 92.8292 38.763 89.6547ZM51.43 90.0086C51.43 86.635 54.1639 83.898 57.5367 83.898C60.9055 83.898 63.6392 86.635 63.6392 90.0086C63.6392 93.3883 60.9055 96.1265 57.5367 96.1265C54.1639 96.1265 51.43 93.3883 51.43 90.0086ZM67.8573 90.4904C67.8573 87.3275 70.4145 84.7663 73.578 84.7663C76.7359 84.7663 79.2931 87.3275 79.2931 90.4904C79.2931 93.6532 76.7359 96.2199 73.578 96.2199C70.4145 96.2199 67.8573 93.6532 67.8573 90.4904ZM64.069 84.2083C64.069 82.814 65.2014 81.6797 66.5978 81.6797C67.9905 81.6797 69.1225 82.814 69.1225 84.2083C69.1225 85.6069 67.9905 86.7412 66.5978 86.7412C65.2014 86.7412 64.069 85.6069 64.069 84.2083ZM56.1119 66.3381C56.1119 64.9394 57.2439 63.805 58.6421 63.805C60.033 63.805 61.1655 64.9394 61.1655 66.3381C61.1655 67.7322 60.033 68.8666 58.6421 68.8666C57.2439 68.8666 56.1119 67.7322 56.1119 66.3381ZM33.065 45.2126C33.065 43.7022 34.2848 42.4854 35.7873 42.4854C37.2887 42.4854 38.5085 43.7022 38.5085 45.2126C38.5085 46.7163 37.2887 47.938 35.7873 47.938C34.2848 47.938 33.065 46.7163 33.065 45.2126ZM1.41912 48.3871C1.41912 45.0682 4.10217 42.3754 7.41525 42.3754C10.7289 42.3754 13.4174 45.0682 13.4174 48.3871C13.4174 51.7054 10.7289 54.3927 7.41525 54.3927C4.10217 54.3927 1.41912 51.7054 1.41912 48.3871ZM12.3473 55.5933C12.3473 52.4515 14.8918 49.9019 18.0286 49.9019C21.1712 49.9019 23.7112 52.4515 23.7112 55.5933C23.7112 58.7391 21.1712 61.2838 18.0286 61.2838C14.8918 61.2838 12.3473 58.7391 12.3473 55.5933ZM39.7569 52.6555C39.7569 51.1407 40.9822 49.9129 42.4963 49.9129C44.0087 49.9129 45.2346 51.1407 45.2346 52.6555C45.2346 54.172 44.0087 55.3992 42.4963 55.3992C40.9822 55.3992 39.7569 54.172 39.7569 52.6555ZM27.6201 56.195C27.6201 53.0548 30.1656 50.5047 33.3025 50.5047C36.4434 50.5047 38.9834 53.0548 38.9834 56.195C38.9834 59.337 36.4434 61.8865 33.3025 61.8865C30.1656 61.8865 27.6201 59.337 27.6201 56.195ZM4.88074 61.3727C4.88074 59.7683 6.17284 58.4687 7.77472 58.4687C9.37604 58.4687 10.6737 59.7683 10.6737 61.3727C10.6737 62.9711 9.37604 64.2707 7.77472 64.2707C6.17284 64.2707 4.88074 62.9711 4.88074 61.3727ZM25.7807 85.9781C25.7807 84.4843 26.9851 83.278 28.4709 83.278C29.9607 83.278 31.165 84.4843 31.165 85.9781C31.165 87.4647 29.9607 88.6708 28.4709 88.6708C26.9851 88.6708 25.7807 87.4647 25.7807 85.9781ZM17.9298 89.5003C17.9298 87.4038 19.6244 85.7065 21.7167 85.7065C23.81 85.7065 25.5052 87.4038 25.5052 89.5003C25.5052 91.5959 23.81 93.2949 21.7167 93.2949C19.6244 93.2949 17.9298 91.5959 17.9298 89.5003ZM28.1004 96.2089C28.1004 93.0671 30.6405 90.5186 33.783 90.5186C36.9182 90.5186 39.4643 93.0671 39.4643 96.2089C39.4643 99.3564 36.9182 101.906 33.783 101.906C30.6405 101.906 28.1004 99.3564 28.1004 96.2089ZM8.64109 98.1286C8.64109 94.7379 11.392 91.9841 14.7759 91.9841C18.1673 91.9841 20.9166 94.7379 20.9166 98.1286C20.9166 101.524 18.1673 104.272 14.7759 104.272C11.392 104.272 8.64109 101.524 8.64109 98.1286ZM1.47986 99.4609C1.47986 97.7746 2.84982 96.4024 4.53894 96.4024C6.22254 96.4024 7.59194 97.7746 7.59194 99.4609C7.59194 101.153 6.22254 102.525 4.53894 102.525C2.84982 102.525 1.47986 101.153 1.47986 99.4609ZM3.60023 27.188C3.60023 24.9255 5.43348 23.0905 7.69243 23.0905C9.95582 23.0905 11.7891 24.9255 11.7891 27.188C11.7891 29.4561 9.95582 31.2866 7.69243 31.2866C5.43348 31.2866 3.60023 29.4561 3.60023 27.188ZM8.31032 36.3084C8.31032 32.9614 11.016 30.252 14.3561 30.252C17.6924 30.252 20.4036 32.9614 20.4036 36.3084C20.4036 39.6483 17.6924 42.3583 14.3561 42.3583C11.016 42.3583 8.31032 39.6483 8.31032 36.3084ZM19.8011 20.4795C19.8011 17.3382 22.3473 14.788 25.4826 14.788C28.6189 14.788 31.165 17.3382 31.165 20.4795C31.165 23.627 28.6189 26.1699 25.4826 26.1699C22.3473 26.1699 19.8011 23.627 19.8011 20.4795ZM23.3793 37.0264C23.3793 33.8463 25.9519 31.2695 29.1281 31.2695C32.3031 31.2695 34.8757 33.8463 34.8757 37.0264C34.8757 40.2063 32.3031 42.7846 29.1281 42.7846C25.9519 42.7846 23.3793 40.2063 23.3793 37.0264ZM21.4085 11.0605C21.4085 9.60657 22.5903 8.42848 24.0364 8.42848C25.4881 8.42848 26.6642 9.60657 26.6642 11.0605C26.6642 12.5155 25.4881 13.6936 24.0364 13.6936C22.5903 13.6936 21.4085 12.5155 21.4085 11.0605ZM0.419678 33.7417C0.419678 32.2324 1.63944 31.0035 3.15351 31.0035C4.66042 31.0035 5.88018 32.2324 5.88018 33.7417C5.88018 35.2509 4.66042 36.4743 3.15351 36.4743C1.63944 36.4743 0.419678 35.2509 0.419678 33.7417Z" fill="white"/>
</mask>
<g mask="url(#mask0_203_73)">
<path d="M58.6575 102.713C58.6575 99.2401 61.4692 96.4296 64.9314 96.4296C68.393 96.4296 71.203 99.2401 71.203 102.713C71.203 106.18 68.393 108.989 64.9314 108.989C61.4692 108.989 58.6575 106.18 58.6575 102.713ZM38.5311 106.148C38.5311 102.884 41.176 100.235 44.4345 100.235C47.6967 100.235 50.3362 102.884 50.3362 106.148C50.3362 109.41 47.6967 112.059 44.4345 112.059C41.176 112.059 38.5311 109.41 38.5311 106.148ZM49.5913 112.828C49.5913 109.682 52.1368 107.132 55.2738 107.132C58.409 107.132 60.9546 109.682 60.9546 112.828C60.9546 115.97 58.409 118.519 55.2738 118.519C52.1368 118.519 49.5913 115.97 49.5913 112.828ZM41.381 118.038C41.381 115.72 43.2584 113.84 45.5708 113.84C47.885 113.84 49.7565 115.72 49.7565 118.038C49.7565 120.355 47.885 122.236 45.5708 122.236C43.2584 122.236 41.381 120.355 41.381 118.038ZM52.9767 99.5825C52.9767 98.1838 54.1032 97.0496 55.4995 97.0496C56.8966 97.0496 58.0231 98.1838 58.0231 99.5825C58.0231 100.976 56.8966 102.11 55.4995 102.11C54.1032 102.11 52.9767 100.976 52.9767 99.5825ZM37.4329 64.8724C37.4329 61.0398 40.5355 57.9322 44.3676 57.9322C48.1943 57.9322 51.2975 61.0398 51.2975 64.8724C51.2975 68.7052 48.1943 71.8143 44.3676 71.8143C40.5355 71.8143 37.4329 68.7052 37.4329 64.8724ZM26.4052 66.3773C26.4052 64.2751 28.1059 62.5662 30.2092 62.5662C32.3086 62.5662 34.0148 64.2751 34.0148 66.3773C34.0148 68.4844 32.3086 70.1872 30.2092 70.1872C28.1059 70.1872 26.4052 68.4844 26.4052 66.3773ZM13.0486 66.1168C13.0486 64.6463 14.2402 63.4566 15.709 63.4566C17.1734 63.4566 18.3649 64.6463 18.3649 66.1168C18.3649 67.5879 17.1734 68.783 15.709 68.783C14.2402 68.783 13.0486 67.5879 13.0486 66.1168ZM15.9862 73.5007C15.9862 70.3587 18.5306 67.8102 21.6731 67.8102C24.8094 67.8102 27.3556 70.3587 27.3556 73.5007C27.3556 76.648 24.8094 79.1921 21.6731 79.1921C18.5306 79.1921 15.9862 76.648 15.9862 73.5007ZM30.1049 75.6415C30.1049 72.4995 32.651 69.9495 35.7873 69.9495C38.9226 69.9495 41.4688 72.4995 41.4688 75.6415C41.4688 78.7872 38.9226 81.3312 35.7873 81.3312C32.651 81.3312 30.1049 78.7872 30.1049 75.6415ZM22.2977 107.657C22.2977 104.394 24.937 101.751 28.1937 101.751C31.4521 101.751 34.091 104.394 34.091 107.657C34.091 110.921 31.4521 113.564 28.1937 113.564C24.937 113.564 22.2977 110.921 22.2977 107.657ZM5.15241 112.226C5.15241 109.04 7.73055 106.456 10.9111 106.456C14.0861 106.456 16.6648 109.04 16.6648 112.226C16.6648 115.406 14.0861 117.988 10.9111 117.988C7.73055 117.988 5.15241 115.406 5.15241 112.226ZM27.7525 121.063C27.7525 117.501 30.635 114.608 34.1915 114.608C37.7526 114.608 40.6343 117.501 40.6343 121.063C40.6343 124.624 37.7526 127.511 34.1915 127.511C30.635 127.511 27.7525 124.624 27.7525 121.063ZM13.8051 121.439C13.8051 118.293 16.3506 115.748 19.4859 115.748C22.6283 115.748 25.1684 118.293 25.1684 121.439C25.1684 124.58 22.6283 127.13 19.4859 127.13C16.3506 127.13 13.8051 124.58 13.8051 121.439ZM8.8233 129.741C8.8233 128.087 10.1607 126.748 11.8117 126.748C13.4627 126.748 14.7985 128.087 14.7985 129.741C14.7985 131.395 13.4627 132.732 11.8117 132.732C10.1607 132.732 8.8233 131.395 8.8233 129.741ZM31.773 26.8833C31.773 22.8355 35.0524 19.551 39.0993 19.551C43.1423 19.551 46.4218 22.8355 46.4218 26.8833C46.4218 30.9384 43.1423 34.2174 39.0993 34.2174C35.0524 34.2174 31.773 30.9384 31.773 26.8833ZM38.4759 40.4839C38.4759 37.0435 41.2594 34.2499 44.6984 34.2499C48.1335 34.2499 50.9227 37.0435 50.9227 40.4839C50.9227 43.9228 48.1335 46.7163 44.6984 46.7163C41.2594 46.7163 38.4759 43.9228 38.4759 40.4839ZM40.8553 14.8335C40.8553 11.6915 43.4009 9.14191 46.5377 9.14191C49.6801 9.14191 52.2246 11.6915 52.2246 14.8335C52.2246 17.9736 49.6801 20.5238 46.5377 20.5238C43.4009 20.5238 40.8553 17.9736 40.8553 14.8335ZM42.4456 3.99245C42.4456 1.78689 44.2296 0 46.4334 0C48.63 0 50.4141 1.78689 50.4141 3.99245C50.4141 6.19418 48.63 7.98108 46.4334 7.98108C44.2296 7.98108 42.4456 6.19418 42.4456 3.99245ZM50.3969 32.2324C50.3969 28.5541 53.3792 25.5682 57.0562 25.5682C60.7288 25.5682 63.7099 28.5541 63.7099 32.2324C63.7099 35.9152 60.7288 38.9023 57.0562 38.9023C53.3792 38.9023 50.3969 35.9152 50.3969 32.2324ZM51.7497 20.7344C51.7497 18.6379 53.446 16.9399 55.5383 16.9399C57.6315 16.9399 59.3263 18.6379 59.3263 20.7344C59.3263 22.83 57.6315 24.5273 55.5383 24.5273C53.446 24.5273 51.7497 22.83 51.7497 20.7344ZM33.8381 8.43401C33.8381 6.22675 35.6207 4.44154 37.8243 4.44154C40.0225 4.44154 41.8106 6.22675 41.8106 8.43401C41.8106 10.6413 40.0225 12.4266 37.8243 12.4266C35.6207 12.4266 33.8381 10.6413 33.8381 8.43401ZM31.1479 15.8841C31.1479 14.3025 32.4301 13.0127 34.0148 13.0127C35.5935 13.0127 36.8746 14.3025 36.8746 15.8841C36.8746 17.4653 35.5935 18.754 34.0148 18.754C32.4301 18.754 31.1479 17.4653 31.1479 15.8841ZM57.4704 74.6233C57.4704 71.3996 60.0771 68.7886 63.2959 68.7886C66.5156 68.7886 69.1225 71.3996 69.1225 74.6233C69.1225 77.8471 66.5156 80.458 63.2959 80.458C60.0771 80.458 57.4704 77.8471 57.4704 74.6233ZM47.7691 74.3412C47.7691 72.2236 49.4808 70.5031 51.5957 70.5031C53.716 70.5031 55.4279 72.2236 55.4279 74.3412C55.4279 76.4594 53.716 78.1799 51.5957 78.1799C49.4808 78.1799 47.7691 76.4594 47.7691 74.3412ZM69.0391 79.4454C69.0391 77.7099 70.4472 76.2941 72.187 76.2941C73.9258 76.2941 75.3339 77.7099 75.3339 79.4454C75.3339 81.1885 73.9258 82.5983 72.187 82.5983C70.4472 82.5983 69.0391 81.1885 69.0391 79.4454ZM38.763 89.6547C38.763 86.4862 41.3301 83.9151 44.4953 83.9151C47.6587 83.9151 50.2258 86.4862 50.2258 89.6547C50.2258 92.8292 47.6587 95.3959 44.4953 95.3959C41.3301 95.3959 38.763 92.8292 38.763 89.6547ZM51.43 90.0086C51.43 86.635 54.1639 83.898 57.5367 83.898C60.9055 83.898 63.6392 86.635 63.6392 90.0086C63.6392 93.3883 60.9055 96.1265 57.5367 96.1265C54.1639 96.1265 51.43 93.3883 51.43 90.0086ZM67.8574 90.4904C67.8574 87.3275 70.4145 84.7663 73.578 84.7663C76.7359 84.7663 79.2931 87.3275 79.2931 90.4904C79.2931 93.6532 76.7359 96.2199 73.578 96.2199C70.4145 96.2199 67.8574 93.6532 67.8574 90.4904ZM64.069 84.2083C64.069 82.814 65.2014 81.6797 66.5979 81.6797C67.9905 81.6797 69.1225 82.814 69.1225 84.2083C69.1225 85.6069 67.9905 86.7412 66.5979 86.7412C65.2014 86.7412 64.069 85.6069 64.069 84.2083ZM56.1119 66.3381C56.1119 64.9394 57.2439 63.805 58.6421 63.805C60.033 63.805 61.1655 64.9394 61.1655 66.3381C61.1655 67.7322 60.033 68.8666 58.6421 68.8666C57.2439 68.8666 56.1119 67.7322 56.1119 66.3381ZM33.065 45.2126C33.065 43.7022 34.2848 42.4854 35.7873 42.4854C37.2887 42.4854 38.5085 43.7022 38.5085 45.2126C38.5085 46.7163 37.2887 47.938 35.7873 47.938C34.2848 47.938 33.065 46.7163 33.065 45.2126ZM1.41912 48.3871C1.41912 45.0682 4.10217 42.3754 7.41525 42.3754C10.7289 42.3754 13.4174 45.0682 13.4174 48.3871C13.4174 51.7054 10.7289 54.3927 7.41525 54.3927C4.10217 54.3927 1.41912 51.7054 1.41912 48.3871ZM12.3473 55.5933C12.3473 52.4515 14.8918 49.9019 18.0286 49.9019C21.1712 49.9019 23.7112 52.4515 23.7112 55.5933C23.7112 58.7391 21.1712 61.2838 18.0286 61.2838C14.8918 61.2838 12.3473 58.7391 12.3473 55.5933ZM39.7569 52.6555C39.7569 51.1407 40.9822 49.9129 42.4963 49.9129C44.0087 49.9129 45.2346 51.1407 45.2346 52.6555C45.2346 54.172 44.0087 55.3992 42.4963 55.3992C40.9822 55.3992 39.7569 54.172 39.7569 52.6555ZM27.6201 56.195C27.6201 53.0548 30.1656 50.5047 33.3025 50.5047C36.4434 50.5047 38.9834 53.0548 38.9834 56.195C38.9834 59.337 36.4434 61.8865 33.3025 61.8865C30.1656 61.8865 27.6201 59.337 27.6201 56.195ZM4.88074 61.3727C4.88074 59.7683 6.17284 58.4687 7.77472 58.4687C9.37604 58.4687 10.6737 59.7683 10.6737 61.3727C10.6737 62.9711 9.37604 64.2707 7.77472 64.2707C6.17284 64.2707 4.88074 62.9711 4.88074 61.3727ZM25.7807 85.9781C25.7807 84.4843 26.9851 83.278 28.4709 83.278C29.9607 83.278 31.165 84.4843 31.165 85.9781C31.165 87.4647 29.9607 88.6708 28.4709 88.6708C26.9851 88.6708 25.7807 87.4647 25.7807 85.9781ZM17.9298 89.5003C17.9298 87.4038 19.6244 85.7065 21.7167 85.7065C23.81 85.7065 25.5052 87.4038 25.5052 89.5003C25.5052 91.5959 23.81 93.2949 21.7167 93.2949C19.6244 93.2949 17.9298 91.5959 17.9298 89.5003ZM28.1004 96.2089C28.1004 93.0671 30.6405 90.5186 33.783 90.5186C36.9182 90.5186 39.4643 93.0671 39.4643 96.2089C39.4643 99.3564 36.9182 101.906 33.783 101.906C30.6405 101.906 28.1004 99.3564 28.1004 96.2089ZM8.64109 98.1286C8.64109 94.7379 11.392 91.9841 14.7759 91.9841C18.1673 91.9841 20.9166 94.7379 20.9166 98.1286C20.9166 101.524 18.1673 104.272 14.7759 104.272C11.392 104.272 8.64109 101.524 8.64109 98.1286ZM1.47986 99.4609C1.47986 97.7746 2.84982 96.4024 4.53894 96.4024C6.22254 96.4024 7.59194 97.7746 7.59194 99.4609C7.59194 101.153 6.22254 102.525 4.53894 102.525C2.84982 102.525 1.47986 101.153 1.47986 99.4609ZM3.60023 27.188C3.60023 24.9255 5.43348 23.0905 7.69243 23.0905C9.95582 23.0905 11.7891 24.9255 11.7891 27.188C11.7891 29.4561 9.95582 31.2866 7.69243 31.2866C5.43348 31.2866 3.60023 29.4561 3.60023 27.188ZM8.31032 36.3084C8.31032 32.9614 11.016 30.252 14.3561 30.252C17.6924 30.252 20.4036 32.9614 20.4036 36.3084C20.4036 39.6483 17.6924 42.3583 14.3561 42.3583C11.016 42.3583 8.31032 39.6483 8.31032 36.3084ZM19.8011 20.4795C19.8011 17.3382 22.3473 14.788 25.4826 14.788C28.6189 14.788 31.165 17.3382 31.165 20.4795C31.165 23.6269 28.6189 26.1699 25.4826 26.1699C22.3473 26.1699 19.8011 23.6269 19.8011 20.4795ZM23.3793 37.0263C23.3793 33.8463 25.9519 31.2695 29.1281 31.2695C32.3031 31.2695 34.8757 33.8463 34.8757 37.0263C34.8757 40.2063 32.3031 42.7846 29.1281 42.7846C25.9519 42.7846 23.3793 40.2063 23.3793 37.0263ZM21.4085 11.0605C21.4085 9.60657 22.5903 8.42847 24.0364 8.42847C25.4881 8.42847 26.6642 9.60657 26.6642 11.0605C26.6642 12.5155 25.4881 13.6936 24.0364 13.6936C22.5903 13.6936 21.4085 12.5155 21.4085 11.0605ZM0.419678 33.7417C0.419678 32.2324 1.63944 31.0035 3.15351 31.0035C4.66042 31.0035 5.88018 32.2324 5.88018 33.7417C5.88018 35.2509 4.66042 36.4743 3.15351 36.4743C1.63944 36.4743 0.419678 35.2509 0.419678 33.7417Z" fill="url(#paint0_linear_203_73)"/>
</g>
<line x1="12.8724" y1="111.23" x2="30.8477" y2="107.082" stroke="#F58071" stroke-width="3"/>
<line y1="-1.5" x2="11.725" y2="-1.5" transform="matrix(-0.86233 0.506348 -0.504012 -0.863697 44.1108 89)" stroke="#F58071" stroke-width="3"/>
<line x1="21.1679" y1="54.7519" x2="36.1679" y2="44.7519" stroke="#F58071" stroke-width="3"/>
<line y1="-1.5" x2="12.4513" y2="-1.5" transform="matrix(0.990282 -0.139071 0.138226 0.990401 18.915 99.1964)" stroke="#F58071" stroke-width="3"/>
<line y1="-1.5" x2="12.6642" y2="-1.5" transform="matrix(0.993108 0.1172 -0.116484 0.993193 22 75)" stroke="#F58071" stroke-width="3"/>
<line x1="44.5002" y1="86.026" x2="44.24" y2="71.026" stroke="#F58071" stroke-width="3"/>
<line x1="40.6356" y1="89.4192" x2="29.6097" y2="86.4483" stroke="#F58071" stroke-width="3"/>
<line x1="55.0122" y1="99.1289" x2="47.0122" y2="92.1289" stroke="#F58071" stroke-width="3"/>
<line y1="-1.5" x2="15.2804" y2="-1.5" transform="matrix(-0.855353 -0.518045 0.515694 -0.856773 45.0701 114.916)" stroke="#F58071" stroke-width="3"/>
<line y1="-1.5" x2="12.5922" y2="-1.5" transform="matrix(0.332927 -0.942953 0.9423 0.334769 59 89.8739)" stroke="#F68A6B" stroke-width="3"/>
</g>
<defs>
<linearGradient id="paint0_linear_203_73" x1="-183.553" y1="95.7249" x2="263.268" y2="95.7249" gradientUnits="userSpaceOnUse">
<stop stop-color="#F04393"/>
<stop offset="1" stop-color="#F9C449"/>
</linearGradient>
<clipPath id="clip0_203_73">
<rect width="79.1605" height="133.086" fill="white" transform="translate(0.419678)"/>
</clipPath>
</defs>
</svg>
